<svg width="279" height="18" viewBox="0 0 279 18" fill="none" xmlns="http://www.w3.org/2000/svg">
<path d="M19.48 15H16.672L19.24 2.88H16.984L14.416 15H11.608L12.136 12.552L10.528 11.304C9.936 11.944 9.184 12.48 8.272 12.912C7.376 13.328 6.352 13.536 5.2 13.536C3.568 13.536 2.312 12.944 1.432 11.76C0.76 10.816 0.424 9.624 0.424 8.184C0.424 7.432 0.512 6.624 0.688 5.76L0.952 4.728L3.688 4.92C3.416 5.976 3.28 6.856 3.28 7.56C3.28 8.504 3.48 9.272 3.88 9.864C4.296 10.44 4.936 10.728 5.8 10.728C6.728 10.728 7.464 10.536 8.008 10.152C8.568 9.752 8.92 9.36 9.064 8.976C9.112 8.832 9.152 8.696 9.184 8.568C9.232 8.424 9.256 8.288 9.256 8.16C9.256 7.28 8.728 6.84 7.672 6.84C7.288 6.84 6.856 6.904 6.376 7.032L6.16 4.344C6.992 4.136 7.712 4.032 8.32 4.032C9.152 4.032 9.808 4.16 10.288 4.416C11.504 5.088 12.112 6.128 12.112 7.536C12.112 7.84 12.08 8.168 12.016 8.52L12.856 9.168L14.176 2.88H0.976L1.576 0.0719991H23.368L22.768 2.88H22.048L19.48 15ZM34.0332 15H31.2492L32.6412 8.352C32.6412 8.048 32.5772 7.536 32.4492 6.816L26.1372 11.352L24.7692 9.216L26.3052 8.112L23.5212 4.848L23.7612 3.648C25.7612 1.264 27.8492 0.0719991 30.0252 0.0719991C31.7052 0.0719991 33.0092 0.807999 33.9372 2.28L34.4172 0.0719991H37.9212L37.3212 2.88H36.6012L34.0332 15ZM28.8492 6.288L31.5852 4.32C31.0412 3.36 30.3212 2.88 29.4252 2.88C28.5452 2.88 27.7132 3.272 26.9292 4.056L28.8492 6.288ZM48.5879 15H45.7799L46.4279 11.928C45.7239 9.208 44.4359 7.848 42.5639 7.848C41.7799 7.848 41.1639 8.024 40.7159 8.376C40.1399 8.84 39.8519 9.36 39.8519 9.936C39.8519 10 39.8519 10.112 39.8519 10.272C39.8679 10.432 39.9639 10.616 40.1399 10.824C40.4599 11.144 40.9799 11.304 41.6999 11.304C41.9399 11.304 42.1959 11.288 42.4679 11.256L42.2519 14.04C41.8359 14.088 41.4519 14.112 41.0999 14.112C40.2199 14.112 39.5239 13.984 39.0119 13.728C37.6519 13.088 36.9719 12.024 36.9719 10.536C36.9719 9.432 37.3559 8.392 38.1239 7.416C38.6519 6.728 39.3479 6.16 40.2119 5.712C41.0759 5.264 42.0599 5.04 43.1639 5.04C44.9239 5.04 46.3639 5.696 47.4839 7.008L48.3479 2.88H38.1479L38.7479 0.0719991H52.4759L51.8759 2.88H51.1559L48.5879 15ZM53.6626 15H50.8546L53.4226 2.88H52.7026L53.3026 0.0719991H57.5746L56.9746 2.88H56.2546L53.6626 15ZM68.2051 15H65.6371L56.4931 10.44L57.0691 7.752L67.9411 3.048L67.9891 2.88H57.7651L58.3651 0.0719991H72.0931L71.4931 2.88H70.7731L68.2051 15ZM66.0931 11.808L67.2931 6.168L60.5731 9.072L66.0931 11.808ZM59.7571 16.728C59.3251 16.728 58.9971 16.576 58.7731 16.272C58.5971 16.048 58.5091 15.784 58.5091 15.48L58.5331 15.168C58.6451 14.72 58.8771 14.344 59.2291 14.04C59.5971 13.736 59.9971 13.584 60.4291 13.584C60.8611 13.584 61.1971 13.736 61.4371 14.04C61.6131 14.264 61.7011 14.536 61.7011 14.856C61.7011 15.384 61.4611 15.856 60.9811 16.272C60.6131 16.576 60.2051 16.728 59.7571 16.728ZM87.7754 15H85.2314L76.0634 10.44L76.6634 7.608L77.9354 7.44C78.8314 7.344 79.8954 7.064 81.1274 6.6C82.3594 6.12 83.1674 5.472 83.5514 4.656C83.6314 4.352 83.6714 4.112 83.6714 3.936C83.6714 3.6 83.5914 3.352 83.4314 3.192C82.5194 4.216 81.3514 4.968 79.9274 5.448C79.1434 5.72 78.1834 5.856 77.0474 5.856L77.6474 3.048H77.8634C78.8074 3.048 79.5594 2.896 80.1194 2.592C80.6954 2.288 81.1114 1.984 81.3674 1.68C81.6394 1.36 81.7914 1.152 81.8234 1.056L82.3514 0.0959988L83.7194 0.0719991C84.6794 0.231999 85.4314 0.679999 85.9754 1.416C86.3754 1.912 86.5754 2.536 86.5754 3.288C86.5754 3.608 86.5354 3.952 86.4554 4.32C86.4234 4.544 86.3594 4.776 86.2634 5.016C85.4954 7.064 83.7194 8.544 80.9354 9.456L85.6394 11.808L88.1354 0.0719991H91.6634L91.0634 2.88H90.3434L87.7754 15ZM92.8501 15H90.0421L92.6101 2.88H91.8901L92.4901 0.0719991H96.7621L96.1621 2.88H95.4421L92.8501 15ZM107.393 15H104.585L105.185 12.144C104.881 11.168 104.489 10.44 104.009 9.96C103.529 9.464 103.033 9.136 102.521 8.976C102.009 8.816 101.561 8.736 101.177 8.736C100.425 8.736 99.8246 8.872 99.3766 9.144C98.8486 9.464 98.5846 9.832 98.5846 10.248C98.5846 10.456 98.6486 10.64 98.7766 10.8C99.1126 11.136 99.6886 11.304 100.505 11.304C100.745 11.304 101.009 11.288 101.297 11.256L101.033 14.04C100.633 14.088 100.257 14.112 99.9046 14.112C98.2726 14.112 97.1286 13.704 96.4726 12.888C95.9606 12.312 95.7046 11.624 95.7046 10.824C95.7046 9.56 96.2726 8.432 97.4086 7.44C98.2886 6.672 99.4486 6.192 100.889 6C100.713 4.864 99.4166 4.296 97.0006 4.296L97.2886 2.88H96.9526L97.5526 0.0719991H111.281L110.681 2.88H109.961L107.393 15ZM106.145 7.68L107.153 2.88H102.545C103.057 3.36 103.401 3.896 103.577 4.488C103.705 4.968 103.769 5.456 103.769 5.952V6.24C104.681 6.528 105.473 7.008 106.145 7.68ZM112.467 15H109.659L112.227 2.88H111.507L112.107 0.0719991H116.379L115.779 2.88H115.059L112.467 15ZM127.01 15H124.442L115.298 10.44L115.874 7.752L126.746 3.048L126.794 2.88H116.57L117.17 0.0719991H130.898L130.298 2.88H129.578L127.01 15ZM124.898 11.808L126.098 6.168L119.378 9.072L124.898 11.808ZM118.562 16.728C118.13 16.728 117.802 16.576 117.578 16.272C117.402 16.048 117.314 15.784 117.314 15.48L117.338 15.168C117.45 14.72 117.682 14.344 118.034 14.04C118.402 13.736 118.802 13.584 119.234 13.584C119.666 13.584 120.002 13.736 120.242 14.04C120.418 14.264 120.506 14.536 120.506 14.856C120.506 15.384 120.266 15.856 119.786 16.272C119.418 16.576 119.01 16.728 118.562 16.728ZM136.692 15H134.292L136.86 2.88H136.164L136.764 0.0719991H150.468L149.868 2.88H139.668L139.596 3.24L148.956 5.52L148.716 6.648C148.204 9.016 147.02 10.928 145.164 12.384C144.14 13.168 143.068 13.752 141.948 14.136C140.844 14.504 139.812 14.744 138.852 14.856C137.908 14.952 137.188 15 136.692 15ZM137.7 12.192C138.404 12.192 139.324 12.072 140.46 11.832C141.596 11.576 142.676 11.072 143.7 10.32C144.564 9.648 145.196 8.784 145.596 7.728L138.972 6.12L137.7 12.192ZM151.631 15H148.823L151.391 2.88H150.671L151.271 0.0719991H155.543L154.943 2.88H154.223L151.631 15ZM167.83 15H165.022L166.318 8.928C166.318 8.032 165.99 7.584 165.334 7.584C165.174 7.584 164.99 7.632 164.782 7.728C164.206 7.984 163.758 8.856 163.438 10.344H160.63C160.71 9.96 160.75 9.608 160.75 9.288C160.75 8.008 160.254 7.368 159.262 7.368C158.798 7.368 158.43 7.528 158.158 7.848C157.79 8.264 157.606 8.696 157.606 9.144C157.606 9.912 158.07 10.472 158.998 10.824L157.582 13.488C155.678 12.752 154.726 11.504 154.726 9.744C154.726 8.72 155.07 7.736 155.758 6.792C156.222 6.152 156.806 5.624 157.51 5.208C158.214 4.776 158.99 4.56 159.838 4.56C161.182 4.56 162.19 5.04 162.862 6C163.71 5.248 164.63 4.848 165.622 4.8L165.982 4.776C166.398 4.776 166.79 4.84 167.158 4.968L167.59 2.88H155.734L156.334 0.0719991H171.718L171.118 2.88H170.398L167.83 15ZM182.369 15H179.561L180.209 11.928C179.505 9.208 178.217 7.848 176.345 7.848C175.561 7.848 174.945 8.024 174.497 8.376C173.921 8.84 173.633 9.36 173.633 9.936C173.633 10 173.633 10.112 173.633 10.272C173.649 10.432 173.745 10.616 173.921 10.824C174.241 11.144 174.761 11.304 175.481 11.304C175.721 11.304 175.977 11.288 176.249 11.256L176.033 14.04C175.617 14.088 175.233 14.112 174.881 14.112C174.001 14.112 173.305 13.984 172.793 13.728C171.433 13.088 170.753 12.024 170.753 10.536C170.753 9.432 171.137 8.392 171.905 7.416C172.433 6.728 173.129 6.16 173.993 5.712C174.857 5.264 175.841 5.04 176.945 5.04C178.705 5.04 180.145 5.696 181.265 7.008L182.129 2.88H171.929L172.529 0.0719991H186.257L185.657 2.88H184.937L182.369 15ZM187.444 15H184.636L187.204 2.88H186.484L187.084 0.0719991H191.356L190.756 2.88H190.036L187.444 15ZM201.986 15H199.418L190.274 10.44L190.85 7.752L201.722 3.048L201.77 2.88H191.546L192.146 0.0719991H205.874L205.274 2.88H204.554L201.986 15ZM199.874 11.808L201.074 6.168L194.354 9.072L199.874 11.808ZM193.538 16.728C193.106 16.728 192.778 16.576 192.554 16.272C192.378 16.048 192.29 15.784 192.29 15.48L192.314 15.168C192.426 14.72 192.658 14.344 193.01 14.04C193.378 13.736 193.778 13.584 194.21 13.584C194.642 13.584 194.978 13.736 195.218 14.04C195.394 14.264 195.482 14.536 195.482 14.856C195.482 15.384 195.242 15.856 194.762 16.272C194.394 16.576 193.986 16.728 193.538 16.728ZM221.557 15H218.749L219.445 11.808C219.477 11.696 219.493 11.544 219.493 11.352C219.493 11.224 219.485 11.008 219.469 10.704C219.453 10.384 219.285 10.008 218.965 9.576C218.661 9.144 218.101 8.832 217.285 8.64C216.565 10.096 215.293 11.168 213.469 11.856C212.429 12.256 211.085 12.456 209.437 12.456L210.037 9.648H210.157C212.109 9.616 213.429 9.28 214.117 8.64C214.565 8.272 214.861 7.76 215.005 7.104C215.053 6.848 215.077 6.616 215.077 6.408C215.077 5.944 214.941 5.544 214.669 5.208C214.397 4.856 213.989 4.616 213.445 4.488C212.901 4.36 212.405 4.296 211.957 4.296L212.245 2.88H211.117L211.717 0.0719991H225.445L224.845 2.88H224.149L221.557 15ZM220.501 6.768L221.341 2.88H216.781C217.533 3.552 217.925 4.528 217.957 5.808C219.029 5.968 219.877 6.288 220.501 6.768ZM234.599 16.44C232.215 14.824 229.103 14.016 225.263 14.016H224.231L224.783 11.208C227.663 11.208 230.007 10.928 231.815 10.368C233.639 9.808 234.551 9.072 234.551 8.16C234.551 7.792 234.343 7.456 233.927 7.152C233.255 6.72 232.399 6.504 231.359 6.504C230.559 6.504 229.783 6.656 229.031 6.96C228.295 7.248 227.847 7.672 227.687 8.232H224.879C225.199 6.872 226.007 5.776 227.303 4.944C228.615 4.112 230.167 3.696 231.959 3.696C233.543 3.696 234.903 4.104 236.039 4.92C236.951 5.592 237.407 6.504 237.407 7.656C237.407 7.928 237.383 8.208 237.335 8.496C236.919 10.272 235.671 11.608 233.591 12.504C234.695 12.888 235.711 13.416 236.639 14.088L234.599 16.44ZM238.871 2.88H225.671L226.271 0.0719991H239.471L238.871 2.88ZM240.624 15H237.816L240.384 2.88H239.664L240.264 0.0719991H244.536L243.936 2.88H243.216L240.624 15ZM255.166 15H252.67L243.19 11.688L243.79 8.928L249.07 6.36C247.886 4.984 246.454 4.296 244.774 4.296L245.062 2.88H244.726L245.326 0.0719991H259.054L258.454 2.88H257.758L255.166 15ZM253.006 11.928L254.95 2.88H249.814C250.982 3.712 251.846 4.616 252.406 5.592L252.646 5.976L252.286 7.656L247.462 10.008L253.006 11.928ZM246.886 17.28C246.454 17.28 246.126 17.136 245.902 16.848C245.726 16.624 245.638 16.352 245.638 16.032L245.662 15.72C245.774 15.272 246.006 14.904 246.358 14.616C246.726 14.312 247.126 14.16 247.558 14.16C247.99 14.16 248.326 14.312 248.566 14.616C248.742 14.824 248.83 15.088 248.83 15.408L248.806 15.72C248.694 16.168 248.454 16.536 248.086 16.824C247.734 17.128 247.334 17.28 246.886 17.28ZM269.721 15H267.153L258.009 10.44L258.585 7.752L269.457 3.048L269.481 2.88H259.281L259.881 0.0719991H278.649L278.049 2.88H272.289L272.265 3.024C275.113 4.432 276.537 6.112 276.537 8.064C276.537 9.472 275.841 10.768 274.449 11.952L272.889 9.96C273.305 9.592 273.553 9.224 273.633 8.856C273.665 8.76 273.681 8.664 273.681 8.568C273.681 7.848 272.985 7.04 271.593 6.144L269.721 15ZM267.585 11.808L268.785 6.168L262.089 9.072L267.585 11.808Z" fill="#004285"/>
</svg>
